<svg width="32" height="33" viewBox="0 0 32 33" fill="none" xmlns="http://www.w3.org/2000/svg">
<g clip-path="url(#clip0_52_134)">
<path fill-rule="evenodd" clip-rule="evenodd" d="M11.22 0.790283C7.95734 0.790283 5.33334 3.52762 5.33334 6.88095C5.33334 8.91962 6.304 10.7303 7.796 11.8356C7.02704 12.4117 6.40375 13.16 5.97609 14.0204C5.54843 14.8808 5.3283 15.8295 5.33334 16.7903C5.33334 18.8303 6.304 20.6396 7.796 21.7449C7.02704 22.3211 6.40375 23.0693 5.97609 23.9297C5.54843 24.7902 5.3283 25.7388 5.33334 26.6996C5.33334 30.0529 7.95734 32.7903 11.22 32.7903C14.4813 32.7903 17.1067 30.0529 17.1067 26.6996V21.5503C18.1378 22.41 19.4375 22.8813 20.78 22.8823C24.0427 22.881 26.6667 20.1436 26.6667 16.7903C26.672 15.8294 26.452 14.8807 26.0243 14.0202C25.5967 13.1597 24.9732 12.4115 24.204 11.8356C24.973 11.2595 25.5963 10.5112 26.0239 9.65083C26.4516 8.79042 26.6717 7.84177 26.6667 6.88095C26.6667 3.52762 24.0427 0.790283 20.78 0.790283H11.22ZM7.54534 6.88095C7.54534 4.75962 9.20134 3.06095 11.22 3.06095H14.8933V10.701H11.22C9.20134 10.701 7.54534 9.00095 7.54534 6.88095ZM20.78 10.6996H17.1067V3.05962H20.78C22.8 3.05962 24.4547 4.75962 24.4547 6.88095C24.4547 9.00095 22.8 10.6996 20.78 10.6996ZM7.54667 16.7903C7.54667 14.6703 9.20267 12.9703 11.2213 12.9703H14.8947V20.6103H11.22C9.2 20.6103 7.54534 18.9103 7.54534 16.7903H7.54667ZM17.1067 16.7903C17.1067 14.6703 18.7627 12.9703 20.7813 12.9703C22.8013 12.9703 24.456 14.669 24.456 16.7903C24.456 18.9103 22.8013 20.6103 20.7813 20.6103C18.7627 20.6103 17.108 18.9116 17.108 16.7903H17.1067ZM7.54667 26.6996C7.54667 24.5796 9.20267 22.881 11.2213 22.881H14.8947V26.6996C14.8947 28.8209 13.2413 30.5196 11.2213 30.5196C9.20267 30.5196 7.54667 28.8209 7.54667 26.6996Z" fill="#F0E3CA"/>
</g>
<defs>
<clipPath id="clip0_52_134">
<rect width="32" height="32" fill="white" transform="translate(0 0.790283)"/>
</clipPath>
</defs>
</svg>
