<svg width="32" height="33" viewBox="0 0 32 33" fill="none" xmlns="http://www.w3.org/2000/svg">
<g clip-path="url(#clip0_52_129)">
<path d="M16 1.1863C7.161 1.1863 0 8.3533 0 17.1863C0 24.2593 4.584 30.2543 10.937 32.3693C11.74 32.5203 12.03 32.0253 12.03 31.5973C12.03 31.2173 12.021 30.2123 12.015 28.8783C7.562 29.8423 6.624 26.7273 6.624 26.7273C5.895 24.8833 4.843 24.3883 4.843 24.3883C3.395 23.3993 4.958 23.4203 4.958 23.4203C6.562 23.5293 7.406 25.0653 7.406 25.0653C8.83299 27.5133 11.15 26.8053 12.067 26.3933C12.207 25.3623 12.624 24.6533 13.078 24.2583C9.52602 23.8573 5.791 22.4823 5.791 16.3513C5.791 14.6003 6.411 13.1743 7.436 12.0543C7.259 11.6533 6.717 10.0233 7.577 7.8193C7.577 7.8193 8.91604 7.3923 11.977 9.46033C13.2809 9.10566 14.6258 8.92379 15.977 8.9193C17.337 8.92829 18.696 9.10627 19.977 9.46033C23.02 7.3923 24.358 7.8193 24.358 7.8193C25.217 10.0233 24.675 11.6523 24.519 12.0543C25.534 13.1743 26.154 14.6013 26.154 16.3513C26.154 22.4963 22.414 23.8513 18.858 24.2423C19.414 24.7213 19.935 25.7063 19.935 27.2013C19.935 29.3413 19.915 31.0653 19.915 31.5863C19.915 32.0023 20.195 32.5023 21.019 32.3413C27.419 30.2483 31.998 24.2483 31.998 17.1853C31.998 8.3523 24.837 1.1853 15.998 1.1853L16 1.1863Z" fill="#F0E3CA"/>
</g>
<defs>
<clipPath id="clip0_52_129">
<rect width="32" height="32" fill="white" transform="translate(0 0.790283)"/>
</clipPath>
</defs>
</svg>
