<svg width="32" height="33" viewBox="0 0 32 33" fill="none" xmlns="http://www.w3.org/2000/svg">
<path d="M26.6667 30.1235H5.33335C4.62611 30.1235 3.94783 29.8425 3.44774 29.3425C2.94764 28.8424 2.66669 28.1641 2.66669 27.4569V12.8555C2.68885 12.4148 2.81839 11.9862 3.04404 11.6069C3.26968 11.2276 3.58458 10.9093 3.96135 10.6795L14.628 4.27953C15.0423 4.03112 15.5163 3.8999 15.9993 3.8999C16.4824 3.8999 16.9564 4.03112 17.3707 4.27953L28.0374 10.6795C28.8386 11.1635 29.3307 12.0302 29.3334 12.9662V27.4569C29.3334 28.1641 29.0524 28.8424 28.5523 29.3425C28.0522 29.8425 27.374 30.1235 26.6667 30.1235ZM5.33335 13.9475V27.4569H26.6667V13.9475L16 21.0582L5.33335 13.9475ZM16 6.5662L7.08802 11.9129L16 17.8542L24.9107 11.9129L16 6.5662Z" fill="#F0E3CA"/>
</svg>
