<svg width="120" height="120" viewBox="0 0 120 120" fill="none" xmlns="http://www.w3.org/2000/svg">
<path d="M85.2501 101.4C80.3501 106.15 75.0001 105.4 69.8501 103.15C64.4001 100.85 59.4001 100.75 53.6501 103.15C46.4501 106.25 42.6501 105.35 38.3501 101.4C13.9501 76.25 17.5501 37.95 45.2501 36.55C52.0001 36.9 56.7001 40.25 60.6501 40.55C66.5501 39.35 72.2001 35.9 78.5001 36.35C86.0501 36.95 91.7501 39.95 95.5001 45.35C79.9001 54.7 83.6001 75.25 97.9001 81C95.0501 88.5 91.3501 95.95 85.2001 101.45L85.2501 101.4ZM60.1501 36.25C59.4001 25.1 68.4501 15.9 78.8501 15C80.3001 27.9 67.1501 37.5 60.1501 36.25Z" fill="#F0E3CA"/>
</svg>
