<svg width="120" height="120" viewBox="0 0 120 120" fill="none" xmlns="http://www.w3.org/2000/svg">
<path d="M83 48.5107L92.2 32.6107C93 31.0607 92.4 29.1606 90.9 28.3606C90.1957 27.9935 89.3796 27.9028 88.6118 28.1063C87.844 28.3098 87.18 28.7929 86.75 29.4607L77.35 45.6607C70.2792 42.6663 62.6787 41.1234 55 41.1234C47.3213 41.1234 39.7208 42.6663 32.65 45.6607L23.25 29.4607C22.7955 28.7632 22.0881 28.2693 21.2768 28.0828C20.4655 27.8963 19.6135 28.0317 18.9 28.4606C17.5 29.3606 17.05 31.1607 17.8 32.6107L27 48.5107C19.3668 52.8712 12.916 59.0326 8.2099 66.4578C3.50381 73.8829 0.685281 82.3465 0 91.1107H110C109.315 82.3465 106.496 73.8829 101.79 66.4578C97.084 59.0326 90.6332 52.8712 83 48.5107ZM30 77.3607C28.3424 77.3607 26.7527 76.7022 25.5806 75.5301C24.4085 74.358 23.75 72.7683 23.75 71.1107C23.75 69.453 24.4085 67.8633 25.5806 66.6912C26.7527 65.5191 28.3424 64.8607 30 64.8607C31.6576 64.8607 33.2473 65.5191 34.4194 66.6912C35.5915 67.8633 36.25 69.453 36.25 71.1107C36.25 72.7683 35.5915 74.358 34.4194 75.5301C33.2473 76.7022 31.6576 77.3607 30 77.3607ZM80 77.3607C78.3424 77.3607 76.7527 76.7022 75.5806 75.5301C74.4085 74.358 73.75 72.7683 73.75 71.1107C73.75 69.453 74.4085 67.8633 75.5806 66.6912C76.7527 65.5191 78.3424 64.8607 80 64.8607C81.6576 64.8607 83.2473 65.5191 84.4194 66.6912C85.5915 67.8633 86.25 69.453 86.25 71.1107C86.25 72.7683 85.5915 74.358 84.4194 75.5301C83.2473 76.7022 81.6576 77.3607 80 77.3607Z" fill="#F0E3CA"/>
</svg>
