<svg width="300" height="300" viewBox="0 0 300 300" fill="none" xmlns="http://www.w3.org/2000/svg">
<rect x="0.5" y="0.5" width="299" height="299" rx="29.5" fill="#1B1A17" stroke="#FF8303"/>
<circle cx="150" cy="158" r="100" fill="#1B1A17"/>
<path d="M89.2 240.4C89.2 240.8 88.9333 240.933 88.4 240.8C87.8667 240.8 87.4667 240.6 87.2 240.2C85.4667 238.467 84.1333 235.6 83.2 231.6C82.4 227.6 81.8667 223.4 81.6 219C81.4667 214.733 81.4667 211.133 81.6 208.2C78.8 208.867 75.6 209.6 72 210.4C68.4 211.333 64.7333 212.2 61 213C57.2667 213.933 53.9333 214.667 51 215.2C48.2 215.867 46.2 216.267 45 216.4C41.9333 216.667 38.4667 217 34.6 217.4C30.8667 217.8 27.4 218 24.2 218C20.0667 218 17.2 217.6 15.6 216.8C14.2667 216.4 13.6 215.2 13.6 213.2C13.6 211.333 14.1333 209.267 15.2 207C16.2667 204.733 17.4 203.2 18.6 202.4C20.4667 201.2 22.5333 200.8 24.8 201.2C26.9333 201.733 28.9333 202.133 30.8 202.4C31.6 202.667 33.2667 202.933 35.8 203.2C38.4667 203.467 41.4667 203.733 44.8 204C48.1333 204.4 51.3333 204.733 54.4 205C57.4667 205.267 59.8 205.467 61.4 205.6C63.4 205.733 66.3333 205.667 70.2 205.4C74.0667 205.133 77.9333 204.8 81.8 204.4C82.4667 198.133 84.1333 190.867 86.8 182.6C89.4667 174.467 92.6667 166 96.4 157.2C100.267 148.4 104.467 139.6 109 130.8C113.533 122.133 117.933 114.133 122.2 106.8C126.333 99.4667 130.133 93.2 133.6 88C137.067 82.6667 139.733 79 141.6 77C143.867 74.7333 145.867 73.0667 147.6 72C143.467 72.2667 138.867 73 133.8 74.2C128.733 75.5333 123.533 77.3333 118.2 79.6C112.867 81.7333 107.733 84.4 102.8 87.6C97.7333 90.8 93.2667 94.4 89.4 98.4C85.5333 102.533 82.4 107 80 111.8C77.6 116.6 76.4 121.8 76.4 127.4C76.4 128.733 76.6 130.333 77 132.2C77.4 133.933 78.6667 135.267 80.8 136.2C81.4667 136.467 81.6667 136.8 81.4 137.2C81.2667 137.467 81.0667 137.6 80.8 137.6C79.0667 137.6 76.8667 137.067 74.2 136C71.6667 134.8 69.4 133 67.4 130.6C65.4 128.2 64.4 125.067 64.4 121.2C64.4 114.933 66.1333 109.333 69.6 104.4C72.9333 99.4667 77.2 95.2 82.4 91.6C87.6 87.8667 93.3333 84.7333 99.6 82.2C105.733 79.6667 111.6 77.5333 117.2 75.8C121.733 74.4667 126.2 73.3333 130.6 72.4C135 71.4667 138.067 70.9333 139.8 70.8C141 70.6667 142.133 70.5333 143.2 70.4C144.267 70.2667 145.333 70.0667 146.4 69.8L151.2 69.2C152.133 69.2 152.8 69.4667 153.2 70C155.2 69.6 156.933 69.4 158.4 69.4C162.4 69.4 164.4 70.7333 164.4 73.4C164.4 75.5333 162.933 78 160 80.8C158.133 82.5333 155.867 85.1333 153.2 88.6C150.667 91.9333 147.933 95.8 145 100.2C142.2 104.6 139.4 109.067 136.6 113.6C133.8 118.133 131.2 122.4 128.8 126.4C124.667 133.733 120.333 141.667 115.8 150.2C111.267 158.6 106.933 167.333 102.8 176.4C98.6667 185.467 95.2 194.467 92.4 203.4L94.2 202.8L95.2 202.4C96.8 202 98.1333 201.733 99.2 201.6C100.4 201.467 101.333 201.4 102 201.4C103.2 201.4 103.8 201.6 103.8 202C103.8 202.267 103.067 202.733 101.6 203.4C100.267 204.067 98.1333 204.667 95.2 205.2L91.6 205.8C90.2667 210.733 89.2 215.533 88.4 220.2C87.6 224.867 87.2 229.333 87.2 233.6C87.2 236.667 87.7333 238.733 88.8 239.8L89.2 240.4Z" fill="#F0E3CA"/>
<mask id="mask0_633_219" style="mask-type:alpha" maskUnits="userSpaceOnUse" x="50" y="58" width="200" height="200">
<circle cx="150" cy="158" r="100" fill="#3E3E3E"/>
</mask>
<g mask="url(#mask0_633_219)">
<path d="M165.6 266V56H339.9V87.2H198V234.8H339.9V266H165.6ZM183.3 173.9V142.7H323.4V173.9H183.3Z" fill="#FF8303"/>
</g>
</svg>
