<svg width="120" height="120" viewBox="0 0 120 120" fill="none" xmlns="http://www.w3.org/2000/svg">
<path d="M13.0001 52.95L41.9001 24L50.3501 32.5C49.1501 36.75 51.1001 41.4 55.0001 43.65V71.35C52.0001 73.05 50.0001 76.3 50.0001 80C50.0001 82.6522 51.0537 85.1957 52.929 87.0711C54.8044 88.9464 57.3479 90 60.0001 90C62.6523 90 65.1958 88.9464 67.0712 87.0711C68.9465 85.1957 70.0001 82.6522 70.0001 80C70.0001 76.3 68.0001 73.05 65.0001 71.35V47.05L75.3501 57.5C75.0001 58.25 75.0001 59.1 75.0001 60C75.0001 62.6522 76.0537 65.1957 77.929 67.0711C79.8044 68.9464 82.3479 70 85.0001 70C87.6523 70 90.1958 68.9464 92.0712 67.0711C93.9465 65.1957 95.0001 62.6522 95.0001 60C95.0001 57.3478 93.9465 54.8043 92.0712 52.9289C90.1958 51.0536 87.6523 50 85.0001 50C84.1001 50 83.2501 50 82.5001 50.35L69.6501 37.5C70.2709 35.1842 70.0302 32.7218 68.9727 30.57C67.9152 28.4182 66.1128 26.7233 63.9001 25.8C61.7501 25 59.5001 24.8 57.5001 25.35L49.0001 16.9L52.9501 13C56.8501 9.05001 63.1501 9.05001 67.0501 13L107 52.95C110.95 56.85 110.95 63.15 107 67.05L67.0501 107C63.1501 110.95 56.8501 110.95 52.9501 107L13.0001 67.05C9.0501 63.15 9.0501 56.85 13.0001 52.95Z" fill="#F0E3CA"/>
</svg>
